<?xml version="1.0" encoding="utf-8"?>
<!-- Generator: Adobe Illustrator 27.5.0, SVG Export Plug-In . SVG Version: 6.00 Build 0)  -->
<svg version="1.1" id="man_working_in_the_room" xmlns="http://www.w3.org/2000/svg" xmlns:xlink="http://www.w3.org/1999/xlink"
	 x="0px" y="0px" viewBox="0 0 3000 3000" style="enable-background:new 0 0 3000 3000;" xml:space="preserve">
<g id="man_working_in_the_room_1_">
	<rect style="fill:#F7F7F7;" width="3000" height="3000"/>
	<g id="man_working_in_the_room_2_">
		<g>
			<g id="WHITEBOARD">
				<g id="woman_presenting_whiteboard">
					<g id="chart_on_whiteboard">
						<g id="whiteboard">
							<g>
								<g>
									<path style="fill:#F2C692;" d="M2770.563,1721.793H242.757V446.142c0-25.179,20.412-45.591,45.591-45.591h2436.625
										c25.179,0,45.591,20.412,45.591,45.591V1721.793z"/>
									<path style="fill:#FFFFFF;" d="M266.486,1677.253V489.07c0-25.957,21.043-47,47-47h2386.35c25.957,0,47,21.043,47,47
										v1188.183H266.486z"/>
								</g>
								<rect x="224.501" y="1699.277" style="fill:#EAD9CA;" width="2558.65" height="54.347"/>
							</g>
						</g>
					</g>
				</g>
			</g>
		</g>
		<ellipse style="fill:#DCD0C8;" cx="1537.031" cy="2697.774" rx="1218.597" ry="123.305"/>
		<g id="chair">
			<g>
				<path style="fill:#FF8C0B;" d="M1672.87,1384.719h-220.415c-52.846,0-96.467,41.324-99.322,94.093l-32.105,593.31h483.269
					l-32.105-593.31C1769.337,1426.044,1725.717,1384.719,1672.87,1384.719z"/>
				<g>
					<g>
						<rect x="1531.818" y="2162.34" style="fill:#3B3A34;" width="61.69" height="521.138"/>
						<path style="fill:#3B3A34;" d="M1697.496,2186.273H1427.83c-22.098,0-40.178-18.08-40.178-40.178l0,0
							c0-22.098,18.08-40.178,40.178-40.178h269.666c22.098,0,40.178,18.08,40.178,40.178l0,0
							C1737.674,2168.193,1719.594,2186.273,1697.496,2186.273z"/>
						<path style="fill:#3B3A34;" d="M1400.434,2669.181h324.458c15.726,0,28.593,12.867,28.593,28.593l0,0h-381.643l0,0
							C1371.841,2682.048,1384.708,2669.181,1400.434,2669.181z"/>
					</g>
					<g>
						
							<ellipse transform="matrix(0.2298 -0.9732 0.9732 0.2298 -979.0952 3055.0493)" style="fill:#C29898;" cx="1440.565" cy="2146.095" rx="8.686" ry="8.686"/>
						
							<ellipse transform="matrix(0.7071 -0.7071 0.7071 0.7071 -1024.0634 1819.8828)" style="fill:#C29898;" cx="1684.761" cy="2146.095" rx="8.686" ry="8.686"/>
					</g>
				</g>
				<path style="fill:#CC7109;" d="M1781.394,2063.291h-437.461c-18.001,0-34.264,10.746-41.323,27.305l-11.293,26.492
					c-6.354,14.905,4.583,31.456,20.786,31.456h501.122c16.203,0,27.139-16.551,20.786-31.456l-11.293-26.492
					C1815.657,2074.037,1799.395,2063.291,1781.394,2063.291z"/>
			</g>
		</g>
		<g id="man">
			<path style="fill:#5F82D4;" d="M1405.108,1308.634c0,0-67.485-3.738-94.229,11.886
				c-26.743,15.624-221.939,302.974-221.939,302.974s-6.506,54.424,13.523,74.454c20.03,20.03,80.233,2.973,160.293,13.698
				l-8.383-73.928l109.042-145.323C1363.416,1492.395,1440.464,1317.914,1405.108,1308.634z"/>
			<path style="fill:#506EBC;" d="M1393,1402c-56,72-107.306,156.564-157.306,229.564c-40-10-73.694-23.564-111.694,1.436
				c-16.092,10.393-26.67,24.272-33.292,40.013c2.124,9.809,5.743,18.923,11.756,24.935c20.03,20.03,80.233,2.973,160.292,13.698
				l-8.383-73.928l109.042-145.323c0,0,20.181-45.704,35.147-91.573C1396.034,1400.472,1394.078,1400.652,1393,1402z"/>
			<g>
				<path style="fill:#015D87;" d="M1783.832,2057.305c2.814-8.34,3.117-17.549,3.356-27.746
					c0.57-24.297-54.526-214.248-60.928-275.012c-86.145,2.794-321.935,0-321.935,0s-133.118,302.758-21.793,302.758
					C1493.856,2057.305,1783.832,2057.305,1783.832,2057.305z"/>
				<path style="fill:#004869;" d="M1658.349,2019l-168.204,0.434c0,0-12.014-62.147-45.145-79.434s-64.637-18.679-97.984-14.544
					c-15.181,68.649-15.347,131.849,35.515,131.849c111.325,0,401.301,0,401.301,0c2.814-8.341,3.117-17.549,3.356-27.746
					c0.251-10.713-10.319-53.629-22.766-103.476c-19.795,1.601-40.647,4.681-56.422,15.917
					C1684.679,1958.61,1669.349,1981,1658.349,2019z"/>
				<g>
					<g>
						<path style="fill:#EB9686;" d="M1804.579,2215.049c-6.147,132.662-9.357,325.66-11.775,349.166
							c-3.092,30.067-74.924-9.52-74.924-9.52s-21.285-167.018-33.201-337.529
							C1724.653,2216.911,1764.605,2215.259,1804.579,2215.049z"/>
						<path style="fill:#F3A977;" d="M1700.579,2530.682h101.687l4.421,41.056c0,0,37.58,50.71,27.264,75.027
							c-10.316,24.316-117.161,22.463-126.004,5.852C1699.105,2636.006,1700.579,2530.682,1700.579,2530.682z"/>
						<path style="fill:#3B3A34;" d="M1704.336,2610.762c0,0,40.281-89.266,121.693-23.021l19.713,48.056
							c0,0,49.604,23.788,49.604,91.027h-207.788c0,0,0-103.345,0-123.24s9.981-47.068,12.929-38.334
							C1704.71,2577.764,1704.336,2610.762,1704.336,2610.762z"/>
					</g>
				</g>
				<g>
					<g>
						<path style="fill:#015D87;" d="M1662.914,2058.001c0,102.532,11.196,465.205,14.838,490.845c0,0,116.607,7.502,146.215-8.263
							c10.269-11.835,31.601-452.771,31.665-564.968C1855.696,1863.419,1662.914,1913.969,1662.914,2058.001z"/>
					</g>
				</g>
				<g>
					<g>
						<path style="fill:#004F73;" d="M1754,2255c-32.536-7.304-65.061-24.317-88.522-48.679
							c3.529,143.118,9.736,324.657,12.273,342.525c0,0,116.607,7.502,146.216-8.263c5.654-6.516,14.662-143.117,21.627-283.307
							C1815.858,2263.153,1784.029,2261.606,1754,2255z"/>
					</g>
				</g>
				<g>
					<g>
						<path style="fill:#EB9686;" d="M1366.208,2233.996c6.147,132.662,9.357,325.66,11.774,349.166
							c3.092,30.067,74.924-9.52,74.924-9.52s11.404-188.081,23.32-358.593L1366.208,2233.996z"/>
						<path style="fill:#F3A977;" d="M1464.5,2535.313h-101.687l-4.421,41.056c0,0-37.58,50.71-27.264,75.026
							c10.316,24.317,117.161,22.464,126.004,5.852C1465.974,2640.637,1464.5,2535.313,1464.5,2535.313z"/>
						<path style="fill:#3B3A34;" d="M1460.743,2615.393c0,0-40.281-89.266-121.693-23.021l-19.713,48.056
							c0,0-49.604,23.788-49.604,91.027h207.788c0,0,0-103.345,0-123.24s-9.981-47.068-12.929-38.334
							C1460.369,2582.395,1460.743,2615.393,1460.743,2615.393z"/>
					</g>
				</g>
				<g>
					<g>
						<path style="fill:#015D87;" d="M1473.847,1996.722c0,0,25.473,525.05,24.458,550.192c0,0-123.875,4.461-153.613-1.489
							c3.167-25.445-60.856-550.942-62.599-563.278C1268.939,1889.031,1463.513,1889.475,1473.847,1996.722z"/>
					</g>
				</g>
				<g>
					<g>
						<path style="fill:#004F73;" d="M1305.754,2178.092c18.519,156.506,40.839,352.055,38.938,367.333
							c29.738,5.949,153.613,1.489,153.613,1.489c0.554-13.733-6.794-176.607-13.577-321.603
							c-5.116,1.565-10.376,2.797-15.728,3.689C1407.202,2240.814,1349.536,2219.59,1305.754,2178.092z"/>
					</g>
				</g>
			</g>
			<path style="fill:#5F82D4;" d="M1691.467,1308.243c0,0,78.545,1.387,105.288,17.01c26.743,15.624,206.54,298.241,206.54,298.241
				s6.506,54.424-13.523,74.454c-20.03,20.03-80.233,2.973-160.292,13.698l8.383-73.928l-109.042-145.323
				C1728.82,1492.395,1656.111,1317.522,1691.467,1308.243z"/>
			<path style="fill:#506EBC;" d="M1973,1651c-31-46-79.365-33.878-125.365-23.878C1804.28,1568.008,1762.469,1498.096,1721,1440
				c-2.288-2.288-7.521-2.939-13.265-3.265c10.895,31.152,21.085,55.66,21.085,55.66l109.042,145.323l-8.383,73.928
				c72.382-9.697,128.53,3.313,153.436-8.904C1986.059,1685.207,1984.274,1667.442,1973,1651z"/>
			<g>
				<path style="fill:#F3A977;" d="M1645.298,1345.533c26.256-9.291,30.324-44.415,7.176-59.901
					c-8.698-5.819-16.993-13.822-24.592-24.966c-28.168-41.309-26.378-154.543-26.378-154.543l-103.449,0.365
					c0,0,2.589,113.218-25.286,154.725c-8.462,12.6-17.834,21.229-27.689,27.249c-24.453,14.937-20.881,51.305,6.166,60.767
					c24.554,8.59,54.762,14.957,90.239,14.832C1580.96,1363.922,1616.332,1355.783,1645.298,1345.533z"/>
				<path style="fill:#E18142;" d="M1549.519,1257.994c30.183-14.641,36.834-28.528,59.766-51.458
					c-8.628-46.878-7.782-100.412-7.782-100.412l-103.449,0.365c0,0,2.139,93.653-18.448,141.83c2.88,1.942,5.749,3.926,8.6,5.983
					C1501.025,1263.364,1535.49,1265.039,1549.519,1257.994z"/>
			</g>
			<g>
				<path style="fill:#5F82D4;" d="M1732.485,1311.458c-20.73-8.145-81.914-33.322-89.644-36.472
					c-0.69,21.278-50.812,55.079-90.893,55.079c-40.081,0-90.916-33.801-91.606-55.079c-8.333,3.396-69.54,28.573-89.644,36.472
					c-9.66,49.124-27.444,507.336-27.444,533.243c0,25.907,21.162,38.966,65.38,35.59c101.531-7.75,230.062-1.693,302.157,0
					c42.728,1.004,55.473-21.36,55.473-35.59S1742.145,1360.582,1732.485,1311.458z"/>
				<g>
					<path style="fill:#ABBEEA;" d="M1624.396,1253.664c0,0,35.15,20.719,43.61,37.649c8.46,16.93-15.259,87.282-30.036,136.721
						c0,0,0.78-62.119-28.686-79.728c-29.299-17.51-57.337-18.24-57.337-18.24s52.315-21.209,61.313-30.207
						C1622.259,1290.86,1624.396,1253.664,1624.396,1253.664z"/>
					<path style="fill:#ABBEEA;" d="M1476.418,1253.664c0,0-35.916,24.107-43.61,37.649c-7.695,13.542,15.259,87.282,30.036,136.721
						c0,0,0.428-60.239,28.686-79.728c25.056-17.281,57.337-18.24,57.337-18.24s-52.315-21.209-61.313-30.207
						C1478.555,1290.86,1476.418,1253.664,1476.418,1253.664z"/>
				</g>
			</g>
			<g>
				<g>
					<g>
						<path style="fill:#F3A977;" d="M1757.339,1041.804c-5.77-2.989-12.793-3.993-20.11-2.843
							c-15.683,2.584-30.036,11.74-40.095,23.894c-4.974,6.01-8.981,12.871-11.485,20.273c-1.912,5.652-4.597,15.951-0.1,21.102
							c4.783,5.477,20.358,15.326,31.867,17.055c13.714,1.734,27.397-1.126,38.437-11.803
							c10.905-10.469,18.911-29.514,16.443-46.065C1770.856,1053.845,1765.34,1045.879,1757.339,1041.804z"/>
					</g>
					<g>
						<path style="fill:#E18142;" d="M1713.81,1081.67c8.65-4.02,16.529,2.72,12.204,8.397c-4.323,5.672-18.398,5.822-6.757,15.329
							c20.113,14.184,45.033-10.362,32.618-29.764c-4.184-8.33-21.271,1.706-32.016-1.626c-15.872-4.268-13.125-18.114-11.516-21.51
							c-3.473,2.688-6.594,5.502-9.312,8.286c-5.863,6.014-9.826,12.612-12.29,18.778c0.129,2.462,0.268,5.144,0.77,8.064
							C1692.29,1099.483,1702.646,1087.785,1713.81,1081.67z"/>
					</g>
				</g>
				<g>
					<g>
						<path style="fill:#F3A977;" d="M1332.917,990.651c6.271-1.704,13.348-1.203,20.257,1.465
							c14.785,5.836,26.882,17.815,34.149,31.818c3.593,6.924,6.062,14.477,6.948,22.24c0.677,5.928,1.127,16.562-4.356,20.648
							c-5.831,4.345-23.134,10.685-34.748,9.945c-13.771-1.2-26.542-6.882-35.08-19.649c-8.45-12.535-12.257-32.84-6.351-48.498
							C1317.163,999.567,1324.236,992.945,1332.917,990.651z"/>
					</g>
					<g>
						<path style="fill:#E18142;" d="M1367.053,1038.805c-7.607-5.755-16.731-0.829-13.702,5.632
							c3.028,6.456,16.754,9.574,3.369,16.409c-22.653,9.62-41.832-19.633-25.602-35.978c5.848-7.26,20.432,6.156,31.638,5.167
							c16.415-0.822,16.652-14.936,15.796-18.595c2.827,3.36,5.284,6.77,7.354,10.065c4.461,7.116,6.943,14.402,8.051,20.949
							c-0.646,2.38-1.348,4.971-2.454,7.72C1384.329,1060.758,1376.674,1047.138,1367.053,1038.805z"/>
					</g>
				</g>
				<g>
					<path style="fill:#F3A977;" d="M1742.04,901.638c8.69-78.611-92.906-152.576-154.785-160.44l0-0.001l-22.524-2.49l0,0.001
						c-62.103-5.842-177.401,44.145-186.092,122.756c0,0,0.369,162.841,3.349,227.063c2.98,64.222,100.606,148.643,138.574,152.841
						c37.968,4.198,151.677-56.862,168.612-118.882C1706.111,1060.466,1742.04,901.638,1742.04,901.638z"/>
				</g>
				<g>
					<path style="fill:#E18142;" d="M1414.393,947.186c11.724-66.34,55.524-91.077,110.697-83.179
						c44.084,6.31,62.017,56.99,137.906,36.065c17.701,0,21.214,9.122,24.696,13.967c10.047,17.597,22.584,37.116,41.735,42.647
						c7.396-31.982,12.614-55.048,12.614-55.048c8.69-78.611-92.906-152.576-154.785-160.44l0-0.001l-22.524-2.49l0,0.001
						c-62.103-5.842-177.401,44.145-186.092,122.756c0,0,0.369,162.841,3.349,227.063c0.657,14.152,5.911,29.286,14.109,44.325
						c-5.002-32.643-0.302-68.451,2.869-101.358C1401.164,1008.956,1410.569,968.821,1414.393,947.186z"/>
				</g>
				<g>
					<path style="fill:#E1753D;" d="M1541.884,1085.698c1.335-0.385,4.602-1.476,5.094-3.178c0.492-1.702-6.441-2.966-9.766-4.303
						c-3.325-1.338-6.571-3.866-6.585-7.563c-0.017-4.597,4.83-8.343,6.083-12.916c0.085-0.311,0.151-0.624,0.198-0.937
						c-1.463-4.097-5.77-3.467-8.437-1.258c-1.764,1.461-2.936,3.495-3.916,5.525c-2.139,4.429-3.608,9.244-3.28,13.882
						c0.327,4.637,2.671,9.062,6.76,10.989C1532.132,1087.87,1537.078,1087.083,1541.884,1085.698z"/>
					<g>
						<path style="fill:#543333;" d="M1620.782,990c15.464-5.351,32.172,3.075,39.119,19.489c0.983,2.323,3.14,3.666,5.375,2.538
							c1.959-0.988,3.4-4.125,2.411-6.463c-4.19-9.899-10.897-17.862-19.444-22.545c-9.408-5.154-20.246-5.543-30.425-2.021
							c-2.184,0.756-3.142,4.245-2.411,6.463C1616.287,990.134,1618.589,990.759,1620.782,990L1620.782,990z"/>
						<path style="fill:#543333;" d="M1477.72,976.171c-13.392-9.404-31.774-5.907-42.974,7.958
							c-1.585,1.962-4.029,2.659-5.866,0.959c-1.611-1.49-2.133-4.902-0.537-6.877c6.755-8.362,15.396-14.169,24.903-16.316
							c10.464-2.363,20.99,0.249,29.804,6.439c1.891,1.328,1.851,4.946,0.537,6.877
							C1482.004,977.538,1479.619,977.505,1477.72,976.171L1477.72,976.171z"/>
						<g>
							<g>
								<path style="fill:#543333;" d="M1646.396,1050.146c-2.619,16.45-8.347,4.212-21.623,2.057s-29.072,6.591-26.453-9.859
									c2.619-16.45,15.505-28.04,28.781-25.885C1640.377,1018.613,1649.016,1033.695,1646.396,1050.146z"/>
							</g>
						</g>
						<g>
							<g>
								<path style="fill:#543333;" d="M1436.356,1023.524c-2.619,16.451,13.889,7.51,27.165,9.665
									c13.276,2.154,18.292,14.588,20.911-1.863c2.619-16.451-6.02-31.533-19.296-33.687
									C1451.86,995.484,1438.975,1007.074,1436.356,1023.524z"/>
							</g>
						</g>
					</g>
					<path style="fill:#F8C7A4;" d="M1554.759,1069.066c-0.063-0.541-0.125-1.081-0.188-1.622c-0.288-1.119-0.837-2.09-1.648-2.914
						c-0.431-0.332-0.862-0.665-1.292-0.997c-0.953-0.548-1.979-0.833-3.078-0.854c-1.461,0.139-2.913,0.285-4.301,0.776
						c-0.934,0.33-1.867,0.692-2.758,1.128c-0.437,0.214-0.858,0.458-1.263,0.727c-0.771,0.398-1.386,0.953-1.845,1.666
						c-0.555,0.605-0.929,1.315-1.123,2.13c-0.254,0.799-0.299,1.6-0.136,2.405c0.026,0.847,0.267,1.64,0.722,2.378
						c0.34,0.449,0.68,0.898,1.02,1.346c0.785,0.781,1.711,1.322,2.777,1.621c0.531,0.077,1.063,0.153,1.594,0.23
						c1.135,0.012,2.198-0.26,3.189-0.816c0.446-0.295,0.931-0.517,1.412-0.746c0.448-0.134,0.903-0.237,1.365-0.315
						c0.545-0.065,1.075-0.188,1.573-0.44c0.821-0.249,1.531-0.693,2.13-1.334c0.617-0.573,1.053-1.251,1.309-2.035
						C1554.595,1070.678,1554.776,1069.899,1554.759,1069.066z"/>
					<path style="fill:#C21017;" d="M1530.591,1124.898c-13.554-1.273-26.251-10.477-31.282-23.191
						c-0.721-1.822,0.171-3.883,1.993-4.604c1.821-0.722,3.883,0.17,4.604,1.993c4.526,11.434,16.729,19.353,29.01,18.834
						c12.285-0.521,23.771-9.445,27.312-21.221c0.564-1.877,2.54-2.945,4.419-2.376c1.877,0.564,2.94,2.542,2.376,4.419
						c-4.382,14.576-18.6,25.623-33.806,26.267C1533.671,1125.085,1532.124,1125.042,1530.591,1124.898z"/>
				</g>
				<path style="fill:#543333;" d="M1460.134,743.636c-17.544,10.816-32.583,25.489-50.738,35.246
					c-16.013,8.605-36.112,12.782-52.473,5.919c25.487,41.949,55.261,68.798,101.112,50.282
					c-1.735,12.308-26.026,35.817-15.05,37.364c9.592,1.352,55.438-33.294,84.187-31.544c42.249,2.572,59.859,36.329,87.219,47.631
					c27.359,11.302,53.053,0.227,67.12-8.877c19.828,29.909,24.007,59.508,9.849,92.633c10.044-8.283,24.008-31.5,24.008-31.5
					s-6.211,105.476-23.375,162.954c20.318-23.166,33.739-75.347,53.147-104.694c21.122-31.939,39.166-71.93,24.843-107.442
					c8.219,5.195,16.438,10.391,24.657,15.586c-9.86-27.999-20.902-55.582-33.083-82.651c-3.924-16.647-10.532-32.65-19.696-47.101
					c-24.045-37.918-65.255-64.469-109.72-70.692c-28.027-3.922-56.516-0.138-84.807-0.838
					c-28.292-0.699-50.472-9.642-78.501-26.605c11.542,18.071,26.134,30.926,51.868,44.713
					C1499.347,725.821,1478.412,732.372,1460.134,743.636z"/>
				<path style="fill:#8D6060;" d="M1503.901,750.435c1.233-2.592,13.511,1.524,33.689,1.79c10.097,0.191,22.151-0.52,35.713-2.056
					c13.551-1.485,28.773-3.815,45.359-4.88c16.6-1.023,33.054-0.376,47.831,3.543c14.71,3.882,26.992,10.643,35.735,18.2
					c8.766,7.595,13.909,15.725,16.134,21.713c0.531,1.522,0.955,2.876,1.273,4.057c0.294,1.194,0.386,2.265,0.448,3.12
					c0.095,1.726-0.169,2.714-0.785,2.961c-0.616,0.247-1.556-0.253-2.747-1.361c-0.61-0.547-1.222-1.277-1.997-2.09
					c-0.8-0.801-1.665-1.734-2.585-2.788c-3.807-4.143-9.583-9.617-17.82-14.664c-8.236-5.014-19.061-9.474-31.622-11.866
					c-12.519-2.411-27.118-2.586-42.68-1.617c-15.615,0.992-30.882,2.774-45.212,3.354c-14.305,0.621-27.522-0.055-38.462-2.093
					c-10.955-2.041-19.517-5.298-24.942-8.403c-1.354-0.796-2.53-1.537-3.523-2.219c-0.987-0.699-1.77-1.399-2.382-1.99
					C1504.108,751.948,1503.625,751.039,1503.901,750.435z"/>
				<path style="fill:#543333;" d="M1382.316,1057.209c0,0,14.623-139.926,25.349-176.881
					c14.436-49.735,65.696-86.231,65.696-86.231s-47.522-2.829-72.591,7.62c-33.187,13.832-46.603,62.5-45.253,84.99
					C1357.539,920.376,1374.678,1026.606,1382.316,1057.209z"/>
			</g>
			<g>
				<path style="fill:#F3A977;" d="M1684.888,1775.588c0,0,184.821-34.674,215.322-42.724c39.69-10.475,91.897-22.39,98.241-58.986
					c4.957-28.593-46.93-49.864-86.94-46.383c-40.009,3.481-216.884,101.746-216.884,101.746L1684.888,1775.588z"/>
				<g>
					<path style="fill:#F3A977;" d="M1724.586,1724.507c0,0-46.667-16.323-57.442-17.668c-10.775-1.346-8.62,22.334-8.62,22.334
						L1724.586,1724.507z"/>
					<path style="fill:#F3A977;" d="M1660.999,1721.431c0,0,32.05-0.696,69.789-0.696c37.739,0,26.176,46.574,8.924,50.506
						c0,0-38.817,15.73-60.382,11.797C1657.764,1779.106,1631.886,1718.809,1660.999,1721.431z"/>
					<path style="fill:#F3A977;" d="M1654.089,1721.808c0,0-72.584,31.417-81.25,35.75c-8.667,4.333,4.333,17.333,21.667,10.833
						s63.917-17.333,82.334-22.75C1695.256,1740.225,1684.422,1715.308,1654.089,1721.808z"/>
					<path style="fill:#F3A977;" d="M1689.365,1732.371c0,0-48.555,28.209-59.48,40.665c-5.896,6.722-2.428,40.665-2.428,47.259
						s15.658,12.54,18.208-8.243c1.214-9.891,2.832-31.689,2.832-31.689l56.648-23.813
						C1705.146,1756.55,1713.643,1724.678,1689.365,1732.371z"/>
					<path style="fill:#F3A977;" d="M1722.954,1735.812c0,0-48.555,28.209-59.48,40.665c-5.896,6.722-2.428,40.665-2.428,47.259
						c0,6.594,15.658,12.54,18.208-8.243c1.214-9.891,2.832-31.689,2.832-31.689l56.648-23.813
						C1738.735,1759.991,1747.232,1728.119,1722.954,1735.812z"/>
					<path style="fill:#F3A977;" d="M1741.362,1740.137c0,0-45.058,26.177-55.196,37.736c-5.471,6.238-2.253,37.736-2.253,43.855
						c0,6.119,14.53,11.637,16.897-7.649c1.126-9.179,2.628-29.407,2.628-29.407l46.588-24.43
						C1750.026,1760.242,1763.891,1732.998,1741.362,1740.137z"/>
				</g>
			</g>
			<g>
				<path style="fill:#F3A977;" d="M1407.348,1775.588c0,0-184.821-34.674-215.322-42.724c-39.69-10.475-91.897-22.39-98.241-58.986
					c-4.957-28.593,46.93-49.864,86.94-46.383c40.009,3.481,216.884,101.746,216.884,101.746L1407.348,1775.588z"/>
				<g>
					<path style="fill:#F3A977;" d="M1367.65,1724.507c0,0,46.667-16.323,57.442-17.668c10.775-1.346,8.62,22.334,8.62,22.334
						L1367.65,1724.507z"/>
					<path style="fill:#F3A977;" d="M1431.238,1721.431c0,0-32.05-0.696-69.789-0.696c-37.739,0-26.176,46.574-8.924,50.506
						c0,0,38.817,15.73,60.382,11.797C1434.472,1779.106,1460.35,1718.809,1431.238,1721.431z"/>
					<path style="fill:#F3A977;" d="M1438.147,1721.808c0,0,72.584,31.417,81.25,35.75c8.667,4.333-4.333,17.333-21.667,10.833
						s-63.917-17.333-82.334-22.75C1396.98,1740.225,1407.814,1715.308,1438.147,1721.808z"/>
					<path style="fill:#F3A977;" d="M1402.871,1732.371c0,0,48.555,28.209,59.48,40.665c5.896,6.722,2.428,40.665,2.428,47.259
						s-15.658,12.54-18.208-8.243c-1.214-9.891-2.832-31.689-2.832-31.689l-56.648-23.813
						C1387.09,1756.55,1378.593,1724.678,1402.871,1732.371z"/>
					<path style="fill:#F3A977;" d="M1369.282,1735.812c0,0,48.555,28.209,59.48,40.665c5.896,6.722,2.428,40.665,2.428,47.259
						c0,6.594-15.658,12.54-18.208-8.243c-1.214-9.891-2.832-31.689-2.832-31.689l-56.648-23.813
						C1353.501,1759.991,1345.004,1728.119,1369.282,1735.812z"/>
					<path style="fill:#F3A977;" d="M1350.874,1740.137c0,0,45.058,26.177,55.196,37.736c5.471,6.238,2.253,37.736,2.253,43.855
						c0,6.119-14.53,11.637-16.897-7.649c-1.127-9.179-2.628-29.407-2.628-29.407l-46.588-24.43
						C1342.21,1760.242,1328.345,1732.998,1350.874,1740.137z"/>
				</g>
			</g>
		</g>
		<g id="desk">
			<rect x="601.794" y="1839.392" style="fill:#3B3A34;" width="1905.932" height="45.629"/>
			<path style="fill:#EAD9CA;" d="M2539.016,1865.866H570.503c-16.424,0-29.862-6.719-29.862-14.931v-0.611
				c0-8.212,13.438-14.931,29.862-14.931h1968.513c16.424,0,29.862,6.719,29.862,14.931v0.611
				C2568.878,1859.147,2555.44,1865.866,2539.016,1865.866z"/>
			<g>
				<polygon style="fill:#3B3A34;" points="648.76,2731.455 604.829,2731.455 703.432,1880.151 808.076,1880.151 				"/>
				<polygon style="fill:#3B3A34;" points="1022.833,2731.455 978.902,2731.455 1037.572,1880.151 1142.215,1880.151 				"/>
				<polygon style="fill:#3B3A34;" points="2460.76,2731.455 2504.691,2731.455 2406.087,1880.151 2301.444,1880.151 				"/>
				<polygon style="fill:#3B3A34;" points="2093.686,2731.455 2137.618,2731.455 2078.948,1880.151 1974.304,1880.151 				"/>
			</g>
		</g>
		<g id="laptop">
			<path style="fill:#2C2C27;" d="M1732.072,1841.159h-395.91c-3.171,0-5.766-2.595-5.766-5.766l0,0
				c0-3.171,2.595-5.766,5.766-5.766h395.91c3.171,0,5.766,2.595,5.766,5.766l0,0
				C1737.838,1838.564,1735.243,1841.159,1732.072,1841.159z"/>
			<g>
				<path style="fill:#3B3A34;" d="M1709.686,1835.392h-351.139c-23.657,0-43.635-17.566-46.663-41.029l-34.118-264.425
					c-2.179-16.885,10.972-31.842,27.997-31.842h456.705c17.025,0,30.176,14.957,27.998,31.842l-34.118,264.425
					C1753.321,1817.826,1733.343,1835.392,1709.686,1835.392z"/>
				<path style="fill:#62615D;" d="M1303.764,1636.884c56.843-41.682,138.989-67.87,230.352-67.87
					c91.363,0,173.51,26.188,230.353,67.87l13.999-108.494c0.602-4.667-0.777-9.183-3.884-12.716
					c-3.107-3.533-7.409-5.479-12.115-5.479h-456.705c-4.705,0-9.007,1.946-12.114,5.479c-3.107,3.533-4.486,8.05-3.885,12.716
					L1303.764,1636.884z"/>
			</g>
		</g>
		<g id="coffee">
			<g>
				<g>
					<polygon style="fill:#D7D9DB;" points="957.389,1841.135 873.251,1841.135 848.032,1637.567 978.446,1637.453 					"/>
					<path style="fill:#A26B35;" d="M949.92,1799.719c-22.945,3.8-46.29,4.85-69.511,3.912c-3.967-0.16-7.928-0.397-11.887-0.667
						l-12.703-102.539c5.225,2.124,10.446,4.255,15.819,5.983c10.759,3.46,21.786,4.768,32.995,3.005
						c12.61-1.983,24.692-6.249,37.099-9.129c9.835-2.283,20.433-3.799,30.367-1.476l-10.203,98.66
						C957.92,1798.297,953.928,1799.055,949.92,1799.719z"/>
					<path style="fill:#E6E6E6;" d="M948,1808.596c-8.669,8.669-58.999,10.097-66.112-1.661
						c-7.113-11.758-23.099-121.483-27.966-121.826l19.329,156.026h84.138l6.546-63.322
						C961.372,1786.402,957.524,1799.071,948,1808.596z"/>
				</g>
				<polygon style="fill:#EBEBEB;" points="841.054,1642.813 985.531,1642.686 972.211,1624.53 854.002,1624.634 				"/>
				<polygon style="fill:#EBEBEB;" points="983.372,1656.314 843.492,1656.437 841.108,1648.138 985.586,1648.011 				"/>
				<polygon style="fill:#D7D9DB;" points="985.59,1648.481 841.113,1648.608 841.054,1642.813 985.531,1642.686 				"/>
			</g>
		</g>
	</g>
</g>
</svg>
